<svg xmlns="http://www.w3.org/2000/svg" viewBox="0 0 383.63 381.12"><g id="acb54a51-bb86-49fb-96df-1db8f218b654" data-name="Capa 2"><g id="b02396e7-38cf-4288-99dd-eb876e1e83f2" data-name="Capa 1"><path d="M383.59,292.56c-.55-12.07-.1-24.19-.1-36.28V74.09c0-5.18-.64-10.19-3.68-14.62C374,51.05,366.18,46.59,355.86,46.6H238c-1.12,0-2.25,0-3.37,0-2.2,0-2.85-.93-2.34-3A34.77,34.77,0,0,0,233.58,34c-.73-16.06-11-28.81-26.43-32.86-14.6-3.83-30,2.62-38.28,16.05-4.91,8-9.48,16.13-14,24.3-2.17,3.91-4.78,5.27-9.2,5.25-36.79-.16-73.58-.09-110.36-.09a42,42,0,0,0-7.09.4C12.91,49.64,3.17,59.7,0,76.18v223c.94,2.57.79,5.39,2,7.93,5.17,11.1,13.82,17.71,25.73,20.17,5.8,1.21,11.69.69,17.53.7q43.79.07,87.55,0c4.9,0,4.88.05,5.35,4.92.84,8.75-.18,17.4-1.46,26-.68,4.59-1,4.9-5.73,4.91-10.85,0-21.7,0-32.55,0a16.2,16.2,0,0,0-7.64,1.46,8.19,8.19,0,0,0-4.31,8.77,8.34,8.34,0,0,0,7,6.87,35.67,35.67,0,0,0,4.85.12H285c1.24,0,2.49,0,3.74,0a8.35,8.35,0,0,0,8-7,8.26,8.26,0,0,0-5.42-9.2,18.65,18.65,0,0,0-7-1H251c-2.22,0-4.26-.12-4.8-3-1.54-8.1-2.77-16.35-2.28-24.51.53-9.08-1-8.39,8.92-8.4,31.8,0,63.6-.07,95.4,0C366.86,328.08,384.55,313.45,383.59,292.56Zm-205-260.21c1.73-2.57,3-5.43,4.77-8,3.68-5.43,8.88-8.15,13.77-8.23,15.63,0,24.56,14.49,18.27,27-1.67,3.31-3.07,8-5.84,9.17-2.61,1.15-6.13-2.81-9.22-4.54-6.93-3.89-13.74-8-20.68-11.87C177.88,34.93,177.32,34.2,178.58,32.35ZM168.39,50c1.07-1.87,1.77-2.41,3.88-1.15,9.06,5.43,18.22,10.69,27.42,15.89,1.82,1,2.46,1.62,1.19,3.81q-29.4,50.61-58.61,101.35c-.47.8-.61,1.94-1.84,2.15-.67-.35-1.34-.66-2-1-9.25-5.35-18.46-10.78-27.79-16-2-1.13-1.75-2-.79-3.62Q139.2,100.71,168.39,50ZM105.76,169.39l22.87,13.2c-7.27,4.2-14,8.07-20.75,12-1.62,1-2.15.67-2.14-1.22C105.79,185.6,105.76,177.82,105.76,169.39ZM15,83.4c0-13,7.62-20.76,20.56-20.77q52.57,0,105.13,0h2.67c0,1.6-1,2.59-1.66,3.73q-24.21,42-48.51,84a16.73,16.73,0,0,0-2.4,8.83c.09,15.71,0,31.43,0,47.14,0,7.41,2.45,9.83,9.89,9.83H282.52c.87,0,1.75,0,2.61,0a7.44,7.44,0,0,0,.67-14.81,28,28,0,0,0-4.1-.11h-154l-.14-.67c5.58-3.24,11.09-6.61,16.77-9.66a18.44,18.44,0,0,0,7.53-7.45q33.75-58.73,67.59-117.38c1.49-2.59,3.09-3.51,6.09-3.5q64.15.15,128.32.07c10,0,14.33,4.34,14.33,14.32q0,89,.07,178.08c0,3.22-.55,4.34-4.15,4.34q-172.45-.17-344.93,0c-3.37,0-4.27-.77-4.27-4.22Q15.06,169.26,15,83.4ZM227.7,365.23q-18.13,0-36.26,0c-12.09,0-24.18,0-36.27,0-2.25,0-3.19-.13-2.7-3a130.68,130.68,0,0,0,1.7-32.75c-.17-2.07.28-2.76,2.51-2.75q34.57.12,69.16,0c2.06,0,2.47.63,2.32,2.54a123.12,123.12,0,0,0,2.13,33.45C230.81,365.39,229.47,365.24,227.7,365.23Zm140.54-86.86c-.32,4.84,0,9.72-.1,14.58a19,19,0,0,1-18.41,18.86c-.87,0-1.75,0-2.62,0H35.92c-11,0-18.93-5.74-20.57-15.65-1.12-6.76-.21-13.68-.39-20.53,0-1.2.56-1.49,1.6-1.43s2,0,3,0H191.61q86.2,0,172.42-.08C367.42,274.15,368.47,275,368.24,278.37Z"/></g></g></svg>