<svg xmlns="http://www.w3.org/2000/svg" viewBox="0 0 279.65 280.35"><defs><style>.e46611fb-2a80-44cd-ba9c-49fb0112bd99{fill:#010101;}</style></defs><g id="a68f3999-2342-4735-a0e6-ffe28f45e23e" data-name="Capa 2"><g id="bc89621e-7c6e-4a87-9dab-837e9d8b858f" data-name="Capa 1"><path class="e46611fb-2a80-44cd-ba9c-49fb0112bd99" d="M207.37,162.58a8.4,8.4,0,0,0-.18-8.74q-26.5-46.08-52.8-92.26c-1.58-2.77-3.46-4.67-6.81-3.83s-4,3.52-4,6.66q.07,40.65,0,81.3c0,3,.88,5.23,3.34,7a11,11,0,0,1,4.69,10.4A11.7,11.7,0,0,1,129.2,167a11.09,11.09,0,0,1,3.43-14,8.81,8.81,0,0,0,3.53-7.69q-.16-40.28,0-80.55c0-3.1-.36-5.91-3.72-6.9s-5.47.92-7.13,3.84Q99,107.82,72.5,153.88c-1.76,3.06-1.67,5.65-.15,8.73,7.78,15.81,15.42,31.69,23.06,47.58.49,1,1.55,1.95,1,3.46-1.14,0-2.25,0-3.37,0a19.23,19.23,0,0,0-18.72,14.77c-.81,3.54-.58,7.21-.45,10.83.35,9.28,5.55,16.05,14.48,18.51,2,.54,2.23,1.44,2.2,3.11-.07,3.87.17,7.75-.09,11.6a9.07,9.07,0,0,0,3,7.88h92.7a9.12,9.12,0,0,0,3-7.88c-.26-3.73,0-7.49-.09-11.23-.06-2,.27-2.94,2.57-3.57,7.29-2,11.95-7,13.7-14.35.9-3.75.59-7.71.34-11.57-.56-8.6-6-15.05-14.33-17.53-2.77-.83-5.61-.1-8.57-.89.53-1.17,1-2.18,1.44-3.17C192,194.29,199.59,178.4,207.37,162.58ZM170.5,269.86c-21.92,0-43.85-.06-65.78.06-2.88,0-3.77-.64-3.69-3.64.21-7.71,0-7.72,7.8-7.72h31c11.84,0,23.67.08,35.51-.06,2.59,0,3.34.62,3.3,3.28C178.55,269.86,178.67,269.86,170.5,269.86Zm12.66-45.68c9.32,0,12.07,2.71,12.05,11.93a19.46,19.46,0,0,1-.32,5.19c-1,3.47-3.29,5.81-7.07,6.26a36.83,36.83,0,0,1-4.46.28q-43.5,0-87,0c-10.55,0-16-9.61-10.82-19,2-3.51,5.23-4.68,9.12-4.67,15.06,0,30.13,0,45.19,0Zm-11.1-13.11a3.93,3.93,0,0,1-4.21,2.62q-28-.12-56,0c-2.2,0-3.23-.71-4.17-2.67-8-16.8-16.19-33.54-24.32-50.3-.66-1.34-1.11-2.44-.17-4.08q20.69-35.86,41.18-71.84a13.87,13.87,0,0,1,1.23-1.36c0,20.23,0,39.82,0,59.4,0,1.8-1,2.65-2,3.74-11.29,12.42-6.22,32.06,9.54,37a22.38,22.38,0,0,0,25.49-9.18,22.09,22.09,0,0,0-2.08-27.27,8.45,8.45,0,0,1-2.42-6.25c.11-17.74.06-35.47.06-53.21V83.86c1.48.72,1.78,2,2.36,3q19.76,34.46,39.5,68.89a5,5,0,0,1,.22,5.39Q184,186,172.06,211.07Z"/><path class="e46611fb-2a80-44cd-ba9c-49fb0112bd99" d="M209.28,25c9.59,0,19.18.11,28.76,0a7.27,7.27,0,0,1,7,3.7c4.66,7.13,11.48,10.44,19.91,8.71,7.93-1.62,13.31-6.39,14.67-14.84V14.24q-2.19-12-14.2-14.24h-8.22c-5.68.53-9.67,3.72-12.51,8.38a6.38,6.38,0,0,1-6.15,3.27c-24.79-.05-49.59,0-74.38,0-4.11,0-4.21-.15-4.58-4.5C159.33,3.82,158.55.92,154.8,0H124.9c-4.12,1.07-4.78,4.35-4.8,7.86,0,2.71-1.16,3.78-3.84,3.77H40.39a5.27,5.27,0,0,1-5-2.63c-3-4.87-7-8.42-12.94-9H14.26c-.18.17-.33.42-.54.5Q-1,5.92.08,20.58C.66,28,7,34.86,14.77,36.51,23,38.25,30.84,34.16,35.15,25.62c.88-1.74,2-1.85,3.54-1.85,12.08,0,24.16,0,36.24.05.6,0,1.52-.49,1.74.39C38.2,45.12,15.78,76.66,12.05,120.77c-.15,1.78-.69,2.47-2.45,2.29a24.84,24.84,0,0,0-3,0c-4.67.08-6.54,1.93-6.55,6.57q0,10.5,0,21c0,4.85,1.85,6.69,6.8,6.71q10.08.06,20.17,0c5,0,6.86-1.87,6.9-7.05,0-6.25,0-12.49,0-18.74,0-7.17-1.22-8.49-8.48-8.41-2.41,0-3.21-.51-2.94-3.06,1.43-13.74,4.69-27,11.25-39.16,17.34-32.19,44-51.24,80.31-56.27,6.93-1,6.94-.88,7.27,5.88.2,4.31,2,6.21,6.19,6.23q12.33.06,24.66,0c4,0,5.78-1.88,6.18-5.89.23-2.28-1.24-5.35.75-6.64,1.76-1.15,4.57.14,6.91.43a101.4,101.4,0,0,1,57.71,27c19.46,18.09,30.34,40.58,33.23,67,.48,4.44.62,4.43-3.89,4.45-5.58,0-7.29,1.73-7.32,7.38q0,9.75,0,19.49c0,5.65,1.75,7.38,7.31,7.4,6,0,12-.17,17.93.07,3.38.13,6.24-.57,8.64-3V125.93c-1.36-3-3.91-4.09-7-3.94-2.81.14-3.92-.86-4.1-3.82a94.44,94.44,0,0,0-2.19-14.42c-5.48-25-18.05-45.79-36.92-62.82a98.3,98.3,0,0,0-24.57-16.4A11.07,11.07,0,0,0,209.28,25Zm51.9-14.45a8.13,8.13,0,0,1,8,7.78,7.82,7.82,0,0,1-15.63.31A8.21,8.21,0,0,1,261.18,10.52ZM18.36,26.22a8.22,8.22,0,0,1-7.82-8,8.19,8.19,0,0,1,7.64-7.74,8.19,8.19,0,0,1,8,7.75A8.26,8.26,0,0,1,18.36,26.22ZM23.28,140c0,6.41,0,6.41-6.34,6.41s-6.42,0-6.42-6.31,0-6.22,6.51-6.22C23.28,133.91,23.28,133.91,23.28,140ZM139.67,26.24c-7.45,0-7.45,0-7.45-7.5,0-8.25,0-8.25,8.19-8.25,7.08,0,7.08,0,7.08,7.88S147.49,26.24,139.67,26.24Zm123.2,107.67c6.32,0,6.32,0,6.32,6.41,0,6.12,0,6.12-6.62,6.12-6.14,0-6.14,0-6.14-6.23S256.43,133.91,262.87,133.91Z"/></g></g></svg>