<svg xmlns="http://www.w3.org/2000/svg" viewBox="0 0 315.78 408.44"><defs><style>.ff1efdcc-337c-4021-ab78-6f0e33765d71{fill:#010101;}</style></defs><g id="b09c8e27-8dee-4bf2-9937-2235deb1c8fe" data-name="Capa 2"><g id="e5c5229c-246c-4d20-b822-6ba971b64567" data-name="Capa 2"><path d="M10.33,0c4.29,2.3,5.83,5.81,5.76,10.72C15.87,26.54,16,42.37,16,58.2c0,3.19-.47,6.1-3.28,8.11A7.71,7.71,0,0,1,.63,62.15a16,16,0,0,1-.57-4.31C0,42,.11,26.18,0,10.35,0,5.45,1.68,1.89,6.34,0Z"/><path d="M281.79,69.43c0,7,0,14.09,0,21.13,0,5.7-3,9.12-7.71,9.23s-8.17-3.49-8.21-9.23q-.12-21.33,0-42.65c0-5.74,3.43-9.41,8.21-9.28s7.67,3.66,7.71,9.28C281.83,55.08,281.79,62.26,281.79,69.43Z"/><path d="M124.7,34.61c0,5.18.1,10.36,0,15.53s-3.44,8.71-7.87,8.72c-4.23,0-7.83-3.32-8-8.27-.25-10.61-.24-21.24,0-31.85.11-5.3,3.56-8.53,8.12-8.44s7.61,3.39,7.73,8.78C124.79,24.26,124.7,29.44,124.7,34.61Z"/><path class="ff1efdcc-337c-4021-ab78-6f0e33765d71" d="M16,90a8,8,0,0,1-7.87,7.81A8.23,8.23,0,0,1,.12,90a8.11,8.11,0,0,1,8.16-8A7.85,7.85,0,0,1,16,90Z"/><path class="ff1efdcc-337c-4021-ab78-6f0e33765d71" d="M273.79,28.19a8.14,8.14,0,0,1-7.91-7.8,8.14,8.14,0,0,1,8.24-7.88,7.84,7.84,0,0,1-.33,15.68Z"/><path d="M211.52,8.73c-5.47-5-12.19-7.18-19.22-8.73h-8c-.52.82-1.4.57-2.15.71C165.39,4,153.34,18,153.54,35.46c.25,21.69,18.76,37.26,40.38,34.07,14.81-2.18,24.55-11.14,28.39-25.49C226,30.34,222.08,18.39,211.52,8.73Zm-23,45.52a19.37,19.37,0,0,1-19.13-19A19.38,19.38,0,0,1,188.61,16a19.14,19.14,0,0,1-.08,38.27Z"/><path d="M315.74,141.25c-.7-9-7.32-15-16.83-15.12-12.9-.1-25.81-.3-38.7.12-4.67.15-6.19-1.38-7.3-5.69-4.9-19-25.87-33.25-45.35-31.89-20.23,1.41-37.33,15.37-41.72,34.58-.47,2.08-1.26,3-3.69,2.93-5.44-.24-10.9-.07-16.35-.07H119.5c8.55-21.18,5.29-36.82-9.77-47.87C97.39,69.18,79.48,70,67.22,80.12c-11.54,9.5-17.48,27.74-7.19,46-12.27,0-24.08,0-35.89,0-5.61,0-10.45,1.72-13.94,6.35-4.65,6.18-4.41,12.91.77,20.62q51.77,77,103.58,154a11.15,11.15,0,0,1,2.07,6.61c-.08,27.93-.05,55.85-.05,83.78,0,10.07,4.84,13.29,14,9.3,22.72-9.89,45.39-19.9,68.18-29.62,5.28-2.26,7.38-5.58,7.29-11.3-.24-16.88,0-33.77-.15-50.66a14.74,14.74,0,0,1,2.65-8.84q51.57-76.43,103-153C314,149.69,316.1,145.87,315.74,141.25ZM210.68,104.6c12.91.46,24.79,9.82,27,21.37h-56A29.06,29.06,0,0,1,210.68,104.6Zm-121-16.79A19.14,19.14,0,1,1,70.5,107.14,19.12,19.12,0,0,1,89.65,87.81Zm207.5,58.31q-51.78,77-103.63,154A19.84,19.84,0,0,0,189.93,312c.18,16.09,0,32.19.12,48.28,0,2.28-.56,3.49-2.79,4.44q-25.77,11-51.4,22.38c-3.09,1.37-3.39.46-3.37-2.4q.13-32.72,0-65.44c0-2.79.72-3.58,3.52-3.51,8,.19,16,.14,23.94,0,5.77-.08,9.14-3,9.31-7.67s-3-8.13-8.25-8.21c-9.71-.15-19.42-.11-29.13,0a4.75,4.75,0,0,1-4.55-2.36Q88.58,239.83,49.74,182.18c-.27-.41-.51-.85-1.08-1.8H206.57c7.21,0,11.12-2.8,11.15-7.95s-3.92-8-11.09-8q-82.59,0-165.2.06a5.88,5.88,0,0,1-5.72-3.07c-4-6.36-8.34-12.53-12.8-19.17H299.67C298.68,143.77,297.93,145,297.15,146.12Z"/><path class="ff1efdcc-337c-4021-ab78-6f0e33765d71" d="M253.08,172.45a8,8,0,0,1-7.78,7.89,7.95,7.95,0,1,1,.12-15.89A8,8,0,0,1,253.08,172.45Z"/></g></g></svg>