<svg xmlns="http://www.w3.org/2000/svg" viewBox="0 0 509.82 509.43"><g id="a7859512-3981-420d-a4cb-2ee49969ca6d" data-name="Capa 2"><g id="ab756c2e-e4b5-4672-86c7-15cbe89988db" data-name="Capa 4"><path d="M456.1,189.62Z"/><path d="M137.56,398.91q-24.21-14.15-48.6-28c-8.45-4.79-16.19-.13-16.26,9.67-.07,9.29,0,18.58,0,27.87s0,18.59,0,27.88c0,10.27,7.91,14.76,16.92,9.61q23.92-13.68,47.74-27.53C146.35,413.15,146.46,404.12,137.56,398.91ZM87.81,429.78v-42.4l36.64,21.21Z"/><path d="M395.75,129c0-6.3-.29-12.63.1-18.91.25-4.16-1.33-5.21-5.07-4.78a33.91,33.91,0,0,1-6,0c-4.33-.28-6.76-2.89-7-7s2.2-7,6.3-7.67a29.64,29.64,0,0,1,7.93-.15c3.23.33,3.85-1,3.77-3.93-.16-6.29-.29-12.63.18-18.9,1-14.13,11.49-24.63,25.56-25.93a85.46,85.46,0,0,1,11.43-.1c4.61.18,7.83,3.3,7.92,7.33.1,4.25-3.21,7.37-8.12,7.53-3,.1-6-.09-9,.07-7.47.4-12.49,5-12.95,12.45-.38,6.28-.1,12.6-.21,18.9,0,2,.8,2.6,2.66,2.54,2.82-.09,5.65-.13,8.46,0,4.67.24,7.79,3.22,7.88,7.31.1,4.38-3,7.32-8,7.57l-.5,0c-10.45.34-10.44.34-10.45,10.67,0,11.12,0,22.23,0,33.35,0,3.44-1.35,6.24-4.73,7.44a7.19,7.19,0,0,1-8.2-1.91c-1.71-1.85-2-4.15-2-6.5Q395.74,138.74,395.75,129Z"/><path d="M508.81,116.16V83.3c-1-.64-.79-1.73-1-2.67-9.83-48.44-53-88.16-114.3-79.41C358,6.28,333.05,27.38,318.08,60c-1.5,3.27-2.57,4.28-6.29,3.17a195.2,195.2,0,0,0-114.13.08c-3.5,1-4.62.26-6.06-2.89C171.94,17.19,133.15-5.24,84.15,1.08,36.85,7.18.63,49.85,0,97.61c-.51,41.14,23,77.48,61,93.82,2.7,1.17,3.75,2,2.75,5.25a196.08,196.08,0,0,0,0,115.59c.89,3,.47,4.1-2.49,5.36A99.79,99.79,0,0,0,.14,415.26a98,98,0,0,0,9.11,36.41c1.43,3.07,3.65,5.12,7.27,5.08A7.17,7.17,0,0,0,23,452.8c1.72-3,.65-5.71-.6-8.51a82.64,82.64,0,0,1-6.12-49.56c7.66-41.78,45.23-72.14,86.4-70.1,44,2.18,77.78,34.4,81.84,78,4.45,47.81-33.87,90.86-81.84,91.88q-33.78.72-59.26-21.51c-4.15-3.62-8.46-3.66-11.48-.38-3.21,3.49-2.63,7.84,1.7,11.65,18,15.79,38.95,24.42,62.83,25.11,42.17,1.2,78.7-22.4,95.55-61.29,1.09-2.51,1.83-3.43,4.91-2.51,38.32,11.45,76.74,11.62,115.11.2,3.37-1,4.51-.24,6,2.94,18,38.3,48.09,59.92,90.47,60.42,42.79.51,73.94-19.43,92.83-57.86,3.8-7.75,4.35-12,7.51-25.43,1.18-10.25,1.5-23.26,0-32.87-1.7-17.92-9.56-33.22-20.52-47.05a96.44,96.44,0,0,0-36.66-28.27c-3.33-1.5-4.87-3.3-3.7-7.29a197.11,197.11,0,0,0,7.58-63.76,206.75,206.75,0,0,0-5.94-42.22c-2.48-10-2.54-9.94,6.3-14.65l.23-.13.2-.12C485,173.08,504.27,149.89,508.81,116.16ZM310.44,399a96.79,96.79,0,0,0,1,27.72c.48,2.52.1,3.75-2.7,4.58-35.95,10.65-71.85,10.57-107.81.05-3.21-.95-3.05-2.61-2.68-5.07C204.85,382.83,185.62,343,147.75,322a96.13,96.13,0,0,0-63.9-10.87c-3.45.57-5.16.11-6.25-3.69a200,200,0,0,1-7.68-53,199.17,199.17,0,0,1,7.69-53c1-3.58,2.55-4.13,5.91-3.55,21.79,3.75,42.52.32,62.2-9.67,6.44-3.27,8.31-7.06,5.86-11.56s-6.28-5-12.5-1.81c-49.4,25.05-108-1.4-121.63-54.9C5.8,74.31,35.23,26.54,81.12,16.66c47.51-10.23,93.73,20.17,102.21,67.27,4.51,25-1.2,47.66-16.51,67.88-2,2.67-3.46,5.32-2.43,8.67a6.91,6.91,0,0,0,5.71,4.93c3.31.62,5.75-.88,7.74-3.38a99.56,99.56,0,0,0,20.33-44.74,92.66,92.66,0,0,0,.06-34.62c-.58-3,.09-4.34,3.16-5.24C237.2,67,273,67.1,308.74,77.54c2.51.73,3.28,1.89,2.78,4.58-9.75,52.65,24.85,103.93,77.49,115.13a92.39,92.39,0,0,0,36.55.8c3.71-.69,5.47-.18,6.61,3.87a189.49,189.49,0,0,1-.09,105.49c-1.09,3.82-2.78,4.31-6.25,3.72C369.71,301.5,315.94,342.58,310.44,399Zm184.33,11c-.25,46.63-38.55,84.58-85.26,84.48s-84.78-38.33-84.78-85c0-46.8,38.56-85.26,85.26-85.05C456.89,324.77,495,363.24,494.77,410.08ZM409.93,184.61c-47,0-85.34-38.45-85.2-85.53.14-46.56,38.46-84.6,85.09-84.49a85.19,85.19,0,0,1,84.94,85.18C494.66,146.4,456.48,184.59,409.93,184.61Z"/><path d="M316.42,241.41c0-18.42,0-36.84,0-55.26,0-5.54-2.72-8.86-7.09-9.15s-7.39,2.72-7.73,8.31c-.13,2.25-1.17,3.2-2.89,4.06-6.35,3.19-12.47,7-19.06,9.54-15.43,6.05-30.14,14.52-48,12.05-9.61-1.32-19.55-.26-29.34-.23-10.11,0-16.15,5.94-16.22,16-.07,11.61,0,23.23,0,34.84,0,12.9,4.91,18,17.92,18.21,2.91,0,4.08.66,4.14,3.83.14,8.13.67,16.24,1.07,24.36.35,7.13.59,14.26,1.16,21.37.37,4.72,3.59,7.49,7.81,7.31s7-3.18,7-8c0-4.15-.26-8.29-.46-12.44-.55-10.93-1.16-21.86-1.68-32.8-.07-1.47-.88-3.69,1.95-3.55,9.56.47,19.35-2.95,28.65,1.79a21.2,21.2,0,0,0,4.23,1.4c4.73,1.27,8.87-.74,10-4.79,1.18-4.26-.93-8-5.71-9.54-5-1.6-10.15-3-15.27-4.34-2.23-.59-3.11-1.59-3.07-4.08q.25-14.92,0-29.86c-.05-2.69.84-3.66,3.35-4.28A226,226,0,0,0,298,206.72c2.89-1.53,3.57-1.07,3.56,2.16-.09,25.22-.05,50.44-.05,76.6-3.4-1.68-6.15-3.09-8.95-4.41-4.89-2.3-8.94-1.19-11,2.95-1.92,4-.43,7.81,4.09,10.27,3.77,2,7.56,4.11,11.44,6,2.9,1.37,4.5,2.94,4.62,6.63.19,5.56,6.39,8.35,11,5.45,3.25-2,3.67-5.24,3.67-8.69Q316.4,272.53,316.42,241.41Zm-87.47,20c0,2.42-.37,3.57-3.21,3.48-7.12-.22-14.26-.25-21.38,0-3,.09-3.51-1.13-3.43-3.74.17-5.3,0-10.61,0-15.91h0c0-5.31.13-10.62,0-15.92-.1-2.64.4-3.8,3.43-3.7,7,.23,13.92.18,20.88,0,2.67-.07,3.76.48,3.71,3.47C228.8,239.86,228.85,250.64,229,261.41Z"/><path d="M151.43,56.13c-4.53-4-8.59-1-12.57,1.47-2.39,1.5-4.44,2.53-7.61.67C114.8,48.64,95.34,56.59,90.3,75c-1,3.79-2.59,3.62-5.47,2.8-9.26-2.64-16.53-8-22.49-15.48-4.52-5.69-11-4.73-13.59,1.95-7.3,18.82-6.27,43.09,11.85,58.29.59.49,1.47.89,1.22,2.11-4.8,1.68-9.88,1.84-15,2-3.72.15-6.32,1.95-7.11,5.73a7.14,7.14,0,0,0,3.87,8.34c2.47,1.33,5,2.53,7.61,3.63,40.14,17,85.42-3.64,92.39-49.17,1.42-9.28,3.33-17.82,8-25.95C154,65.3,156.09,60.25,151.43,56.13ZM80.6,135.32c-.9,0-1.95.42-3-.84,1.9-1.2,3.67-2.14,5.22-3.36,4.46-3.5,4.19-9.42-.6-12.48-3.2-2-6.77-3.54-9.8-5.79C62.11,105.17,58.32,94.73,60,81.48c9,6.89,18.48,11.13,29.23,12.27a51.85,51.85,0,0,0,6.93.39c4.88-.12,7.66-2.74,8.1-7.58.19-2,0-4,.18-6A12.69,12.69,0,0,1,121,69.73c5.15,1.69,8.72,6,8.86,11.27C130.83,116.48,105.86,135.27,80.6,135.32Z"/><path d="M410,387a22.52,22.52,0,1,0,22.24,22.69A22.53,22.53,0,0,0,410,387Zm-.15,30.08a7.44,7.44,0,0,1-7.64-7.43,7.54,7.54,0,1,1,15.08-.2A7.42,7.42,0,0,1,409.85,417.11Z"/><path d="M462.71,379.23c0-14.24-8.26-22.39-22.63-22.5-10.12-.08-20.24,0-30.35,0s-20.24-.07-30.35,0c-14.35.12-22.52,8.28-22.57,22.56q-.09,30.34,0,60.7c.05,14.19,8.46,22.55,22.62,22.58q30.36.06,60.7,0c14.12,0,22.54-8.46,22.58-22.64Q462.8,409.59,462.71,379.23Zm-14.94,60.64c0,5.89-1.88,7.74-7.73,7.76q-30.33,0-60.67,0c-5.81,0-7.61-1.86-7.62-7.85q-.06-30.07,0-60.17c0-6.36,1.57-7.9,8-7.94,10.11-.05,20.22,0,30.33,0s20.22-.06,30.33,0c5.67.05,7.38,1.8,7.39,7.53Q447.85,409.55,447.77,439.87Z"/></g></g></svg>