<svg xmlns="http://www.w3.org/2000/svg" viewBox="0 0 359.11 359.21"><g id="a6d212e7-93cf-4e22-8351-519ad1269fea" data-name="Capa 2"><g id="fa996a7b-3869-4293-b71f-61aa5ef9253b" data-name="Capa 3"><path d="M343.55,185.58c2.35.19,4.73,0,7.1,0,6.66,0,8.55-1.82,8.46-8.34a180.13,180.13,0,0,0-16.3-72.3c-38.9-86-140-127.23-227.86-92.9C46.35,38.88.36,105,0,177.28c0,6.53,1.79,8.34,8.46,8.34,25.93,0,51.87.06,77.8-.08,3,0,3.73.87,3.57,3.69-.23,4.23-.13,8.48,0,12.72,0,1.77-.23,2.91-2.1,3.73a15,15,0,0,0-7.78,7.74c-.8,1.79-1.86,2.2-3.68,2.17-7.73-.09-15.47-.1-23.2,0a5.66,5.66,0,0,1-4.56-1.87c-4.42-4.57-9-9-13.44-13.53a8.07,8.07,0,0,0-6.31-2.64c-4.49.12-9,0-13.47,0-9.83,0-9.76,0-9.36,9.79.08,1.88.67,2.25,2.38,2.22,5.48-.09,11,.05,16.45-.08a5.58,5.58,0,0,1,4.56,1.87c4.33,4.49,8.84,8.8,13.17,13.28a9,9,0,0,0,7,2.9c8.73-.12,17.46,0,26.18-.09,2.21,0,3.66.29,4.55,2.61s2.58,4.67,4.82,5.54c5.08,2,5.21,5.78,4.81,10.11a11.89,11.89,0,0,0,0,3c.41,2.45-.72,2.82-2.91,2.8q-15.33-.17-30.67,0c-2.3,0-3.63-.42-4.85-2.75a17.34,17.34,0,0,0-20-8.63,17.88,17.88,0,0,0,.2,34.69A17.39,17.39,0,0,0,51.48,266c1.12-2.15,2.36-2.61,4.57-2.59,12.84.11,25.68.07,38.53,0,4.9,0,7.1-2.19,7.15-7s.12-9.73,0-14.59c-.08-2.34.52-3.58,2.79-4.83,11-6,12.82-21.48,2.68-28.72-5.08-3.64-5.83-7.35-5.46-12.51a51.87,51.87,0,0,0,0-7.48c-.14-2.07.46-2.77,2.64-2.71,6,.15,12,.21,18,0,2.75-.1,3.49.57,3.47,3.42-.14,20.2,0,40.4-.12,60.6a9.73,9.73,0,0,0,3.19,7.59c6.34,6.17,12.5,12.53,18.83,18.72a6.13,6.13,0,0,1,2,4.88q-.12,20.39,0,40.77c0,1.91-.36,3-2.27,4a17.31,17.31,0,0,0-9.13,20.07,17.87,17.87,0,0,0,34.68.11,17.41,17.41,0,0,0-9-20.15,3.72,3.72,0,0,1-2.4-3.93c.11-10.22.7-20.5-.14-30.66-.77-9.37,1.45-16.69,9.23-22.16,2.44-1.72,3-4.33,3-7.27-.12-8.73,0-17.46-.09-26.19,0-2.11.61-3.15,2.55-4.21,11.38-6.17,13.11-21.89,2.59-29.21-4.77-3.33-5.54-6.72-5.11-11.52a11.39,11.39,0,0,0,0-2.61c-.26-1.91.64-2.23,2.34-2.22q27.09.07,54.17,0l.47.8c-2.16,2-4.4,4-6.47,6.12-10.46,10.72-8.38,5.81-8.54,20.64,0,2.29-.42,3.62-2.74,4.86a17.58,17.58,0,0,0-.2,30.83c2.39,1.31,2.65,2.76,3,5.11,1.33,9.16-1.23,16.48-9,21.87-2.55,1.78-3.2,4.46-3.17,7.56.13,10.72,0,21.44.09,32.17,0,1.93-.42,3-2.31,4a17,17,0,0,0-9.65,14.93A17.92,17.92,0,0,0,206.3,353c8.29,1.66,17-3.31,20-11.47a17.61,17.61,0,0,0-8.17-21.76c-2-1.09-2.8-2.16-2.72-4.48.2-6,.58-12-.06-17.95-1-9.35,1.08-17,9.19-22.53,2.31-1.57,3-4,2.94-6.9-.14-4.85,0-9.72-.07-14.58,0-1.89.25-3.14,2.26-4a14.48,14.48,0,0,0,7.52-7.49c.87-1.94,2-2.35,4-2.32,8.86.09,17.71,0,26.56.08a8.93,8.93,0,0,0,7-2.85c4.25-4.39,8.69-8.59,12.91-13a6.33,6.33,0,0,1,5.18-2.19c7.23.13,14.46.19,21.69,0,2.68-.08,4.09.62,5.41,3.09a17.24,17.24,0,0,0,17.61,8.8c7.53-1.25,12.74-5.52,14.89-13s.23-14.48-6.15-18.5c-4.84-3-5.48-6.49-5.08-11.17a12.75,12.75,0,0,0,0-2.62C341,186.28,341.45,185.4,343.55,185.58ZM35.86,263.42a6,6,0,1,1,6-5.83A6,6,0,0,1,35.86,263.42Zm179.59,71.73a6,6,0,1,1-6-5.84A6,6,0,0,1,215.45,335.15ZM293.78,57.09a171,171,0,0,1,29.88,37.1c.19.32.37.65.6,1.06.2.74-.43,1-1,1.2-9,3.49-18.29,6.36-27.61,9-1.61.47-1.93-.59-2.28-1.67a195.81,195.81,0,0,0-18.33-40.66c-1-1.62-.5-2.06,1.1-2.51,4.78-1.35,9.52-2.82,14.26-4.3A3,3,0,0,1,293.78,57.09Zm-.58,114c.11,2.32-.76,2.61-2.73,2.59-9.09-.09-18.18,0-27.27,0-8.84,0-17.69-.1-26.53.06-2.48,0-3.35-.42-3.38-3.16-.11-13-.67-25.89-1.86-38.79-.2-2.1.31-2.8,2.45-3a403,403,0,0,0,49.32-8c2-.45,2.84-.21,3.36,1.95A262,262,0,0,1,293.2,171.1ZM247.93,26.84c12,4.94,22.76,11.82,33.15,19.57-.35.4-.46.64-.62.68-4.3,1.14-8.86,3.69-12.85,3s-5.47-6.24-8.48-9.3c-4.17-4.25-8.2-8.62-12.3-12.93a4,4,0,0,1-2.11-2.07A3.52,3.52,0,0,1,247.93,26.84ZM173.87,14.16c4.09-2.84,7.2-2.83,11.34,0a25.47,25.47,0,0,1,6.61,7c7.43,10.94,11.48,23.34,15.3,35.83.67,2.18-.64,2.12-2.14,2.16-8.59.25-17.16,1-25.59.68-8.54.32-16.86-.47-25.21-.66-1.85,0-2.78-.29-2.11-2.49,3.57-11.66,7.39-23.21,14-33.62A29.51,29.51,0,0,1,173.87,14.16ZM208,71c1.93-.12,2.73.24,3.2,2.37,3.16,14.24,5.19,28.64,7,43.09.33,2.55-1.37,1.81-2.5,1.91-12.05,1-24.12,1.43-36.21,1.4s-24.16-.43-36.21-1.4c-1.24-.1-2.7.42-2.39-2,1.81-14.33,3.84-28.6,7-42.72.48-2.19,1.19-2.78,3.37-2.64A449.94,449.94,0,0,0,208,71ZM112.73,26c.62,1.87-.75,2.29-1.46,3A137.39,137.39,0,0,0,93.91,48.48c-1.22,1.68-2.36,2.23-4.33,1.64C85.82,49,82,48,77.65,46.81A159.74,159.74,0,0,1,112.73,26ZM61.1,120a237.06,237.06,0,0,0-7,50.91c-.08,2.29-.67,2.91-3,2.85-6.1-.18-12.21-.06-18.31-.06s-12.21-.07-18.31,0c-1.91,0-2.54-.45-2.42-2.48a171.27,171.27,0,0,1,15.68-62.55c.86-1.85,1.76-1.94,3.44-1.27a238,238,0,0,0,27.92,9.19C61.22,117.14,61.61,118,61.1,120Zm.6-15c-8.34-2.47-16.6-5.12-24.77-8.1-2.16-.79-2.3-1.4-1.15-3.3A173.42,173.42,0,0,1,65,57.39a3.54,3.54,0,0,1,4-1c4.6,1.5,9.25,2.86,13.88,4.27.78.23,1.81.17,1.72,1.46-.37.65-.73,1.3-1.11,1.94a192.64,192.64,0,0,0-17.41,38.63C65.23,105.34,64.37,105.78,61.7,105Zm40,116.61a6,6,0,1,1-5.82-6A6,6,0,0,1,101.72,221.59Zm26-89.87c-1.21,13-1.78,26.09-1.89,39.17,0,2.39-.73,2.84-3,2.81-9.09-.13-18.18,0-27.27,0s-17.94-.09-26.9.06c-2.4,0-2.87-.67-2.76-2.94a258.81,258.81,0,0,1,6.62-48c.51-2.13,1.37-2.52,3.34-2.06a389.69,389.69,0,0,0,49.31,8C127.26,129,127.89,129.55,127.69,131.72ZM136,72.21a382.2,382.2,0,0,0-6.74,42.41c-.26,2.47-.36,2.45-3.49,2.2A448.41,448.41,0,0,1,79,109.31c-2.08-.43-2.3-1.22-1.68-3A196.23,196.23,0,0,1,96,66.11c1.06-1.73,2.24-2,4-1.62a330.14,330.14,0,0,0,34,5C136,69.73,136.45,70.3,136,72.21Zm.14-14.45q-14.47-1.5-28.82-3.88c-1.5-.25-2.5-.5-1.11-2.21,13.27-16.31,28.92-29.33,49.33-35.79.1,0,.23,0,.7.17-7.73,12.09-12.34,25.31-16.07,38.86C139.52,57.34,138.64,58,136.17,57.76Zm25.41,283.55a6,6,0,1,1-5.82-6A6,6,0,0,1,161.58,341.31Zm-5.51-75c-.77.89-1.49-.43-2-1-5-5-10-10.1-15.1-15-1.29-1.25-1.28-2.56-1.28-4q0-14.4,0-28.79c0-9.72.05-19.44,0-29.15,0-2,.4-2.8,2.61-2.74,6.23.15,12.46.13,18.69,0,2,0,3.06.36,2.71,2.59a9.32,9.32,0,0,0,0,2.24c.42,4.78-.29,8.2-5.1,11.51-10.36,7.16-8.85,22.93,2.22,29,2.4,1.32,3,2.67,2.92,5.11-.13,7.48-.18,15,0,22.43C161.75,262.64,158.15,263.88,156.07,266.29Zm17.48-51a6,6,0,1,1-6.1-5.74A6,6,0,0,1,173.55,215.32Zm44.89-41.61c-13-.13-25.92-.06-38.88-.06s-25.92-.07-38.88.06c-2.46,0-3.08-.64-3-3.08.29-12.34.95-24.65,1.64-37,.14-2.56.72-3.63,3.68-3.38a444.69,444.69,0,0,0,73.17,0c3-.24,3.54.8,3.69,3.37.68,12.32,1.34,24.64,1.63,37C221.51,173.05,220.91,173.73,218.44,173.71Zm0-120.13c-3.37-13.14-8.16-25.78-15.87-38a86.92,86.92,0,0,1,25.76,12.71,120.85,120.85,0,0,1,23.83,22.46c1.46,1.77,2.34,2.77-1,3.29-8.84,1.38-17.72,2.52-26.59,3.66C221,58.14,219.39,57.32,218.43,53.58Zm11.27,60.23a365.34,365.34,0,0,0-6.45-40.94c-.5-2.29-.36-3.15,2.38-3.41a289.21,289.21,0,0,0,33.24-4.92c2.07-.45,3.33,0,4.54,1.95A196.43,196.43,0,0,1,281.69,106c.63,1.87.78,2.82-1.62,3.33a470.43,470.43,0,0,1-47.4,7.63C230.39,117.79,229.94,116.19,229.7,113.81Zm-8.18,125.67a6,6,0,1,1,5.91-5.94A6,6,0,0,1,221.52,239.48Zm102.71-37.9a7.91,7.91,0,0,0-4.17,4.64c-1.11,3-3.05,3.49-6,3.42-8.47-.21-16.95,0-25.43-.11a8.53,8.53,0,0,0-6.62,2.76c-4.44,4.56-9,9-13.43,13.54a5.3,5.3,0,0,1-4.24,1.74q-11.6-.15-23.18,0c-1.93,0-3.12-.33-4-2.3a14.92,14.92,0,0,0-7.49-7.52c-1.65-.78-2.16-1.71-2.36-3.58-.59-5.61.68-10.19,5.5-13.56a34.39,34.39,0,0,0,4-3.92c3.73-3.67,6.88-8.75,11.35-10.59s10.31-.46,15.54-.47h24.68c12.58,0,25.17.06,37.76-.05,2.38,0,3.45.52,3,3a11.47,11.47,0,0,0,0,2.62C329.59,195.64,329.49,199.66,324.23,201.58Zm16.92,14a6,6,0,1,1-5.86-6A6,6,0,0,1,341.15,215.56ZM325.9,173.65c-6,0-12-.13-17.93.06-2.36.08-2.83-.67-2.92-2.89A239.06,239.06,0,0,0,298,119.91c-.52-2-.07-2.75,2-3.31A249.37,249.37,0,0,0,328,107.41c1.74-.7,2.55-.52,3.39,1.29A171.06,171.06,0,0,1,347,171.24c.13,2.12-.62,2.47-2.46,2.44C338.35,173.59,332.13,173.65,325.9,173.65Z"/><path d="M315.57,258.05a17.34,17.34,0,0,0-20.06,9.15c-1,1.92-2.12,2.3-4,2.26-5.48-.09-11,0-16.45,0s-11,0-16.46,0c-5.07,0-7.18,2.18-7.19,7.34,0,8.85-.05,17.7,0,26.55,0,2-.28,3.22-2.39,4.32a17.3,17.3,0,0,0-9,20.13,17.87,17.87,0,0,0,34.67-.12,17.44,17.44,0,0,0-9.1-20.11c-1.61-.86-2.35-1.66-2.31-3.59.14-6.61.18-13.22,0-19.82-.07-2.46.79-2.82,3-2.79q12.71.18,25.42,0c2,0,2.95.65,3.91,2.44a17.38,17.38,0,0,0,20.16,8.94,17.88,17.88,0,0,0-.17-34.68Zm-52.23,65.12a6,6,0,1,1-6-5.83A6,6,0,0,1,263.34,323.17Zm47.71-41.79a6,6,0,1,1,6.16-6.05A6,6,0,0,1,311.05,281.38Z"/><path d="M125.75,282.45c-7.23-2.6-16-.61-19.88,6-2.76,4.66-6,5.33-10.48,4.92a15.73,15.73,0,0,0-3.36,0c-2.38.3-3.6-.54-4.79-2.83a17.46,17.46,0,0,0-18.94-8.82,17.92,17.92,0,0,0-2.87,34.34c7.38,2.84,16.1,1,20.22-5.85,2.79-4.59,6-5.35,10.48-4.91a15.1,15.1,0,0,0,3.36,0c2.38-.3,3.59.55,4.79,2.82a17.41,17.41,0,0,0,20,8.52,17.92,17.92,0,0,0,13.35-17.3A18.11,18.11,0,0,0,125.75,282.45ZM71.5,305.33a6,6,0,1,1,6.28-5.94A6,6,0,0,1,71.5,305.33Zm48.14,0a6,6,0,1,1,6-5.82A6,6,0,0,1,119.64,305.33Z"/></g></g></svg>